<svg width="16" height="94" fill="none" xmlns="http://www.w3.org/2000/svg"><g filter="url(#filter0_d)"><path d="M8.354 14.146a.5.5 0 00-.708 0l-3.182 3.182a.5.5 0 10.708.707L8 15.207l2.828 2.828a.5.5 0 10.708-.707l-3.182-3.182zM8.5 31.5v-17h-1v17h1z" fill="#FCFDFB"/><path d="M7.646 79.526a.5.5 0 00.708 0l3.182-3.181a.5.5 0 10-.708-.708L8 78.466l-2.828-2.829a.5.5 0 10-.708.707l3.182 3.183zM7.5 62.1v17.073h1V62.1h-1z" fill="#0f3a53"/></g><defs><filter id="filter0_d" x=".318" y="0" width="15.364" height="101.6" filterUnits="userSpaceOnUse" color-interpolation-filters="sRGB"><feFlood flood-opacity="0" result="BackgroundImageFix"/><feColorMatrix in="SourceAlpha" values="0 0 0 0 0 0 0 0 0 0 0 0 0 0 0 0 0 0 127 0"/><feOffset dy="4"/><feGaussianBlur stdDeviation="2"/><feColorMatrix values="0 0 0 0 0 0 0 0 0 0 0 0 0 0 0 0 0 0 0.25 0"/><feBlend in2="BackgroundImageFix" result="effect1_dropShadow"/><feBlend in="SourceGraphic" in2="effect1_dropShadow" result="shape"/></filter></defs></svg>