<svg width="16" height="137" fill="none" xmlns="http://www.w3.org/2000/svg"><g filter="url(#filter0_d)"><path d="M8.354 20.839a.5.5 0 00-.708 0L4.464 24.02a.5.5 0 00.708.707L8 21.899l2.828 2.829a.5.5 0 00.708-.707l-3.182-3.182zm.146 25.2V21.191h-1v24.846h1z" fill="#FCFDFB"/><path d="M7.646 116.068a.5.5 0 00.708 0l3.182-3.182a.5.5 0 10-.708-.707L8 115.007l-2.828-2.828a.5.5 0 00-.708.707l3.182 3.182zM7.5 90.762v24.952h1V90.761h-1z" fill="#0f3a53"/></g><defs><filter id="filter0_d" x=".318" y="0" width="15.364" height="144.8" filterUnits="userSpaceOnUse" color-interpolation-filters="sRGB"><feFlood flood-opacity="0" result="BackgroundImageFix"/><feColorMatrix in="SourceAlpha" values="0 0 0 0 0 0 0 0 0 0 0 0 0 0 0 0 0 0 127 0"/><feOffset dy="4"/><feGaussianBlur stdDeviation="2"/><feColorMatrix values="0 0 0 0 0 0 0 0 0 0 0 0 0 0 0 0 0 0 0.25 0"/><feBlend in2="BackgroundImageFix" result="effect1_dropShadow"/><feBlend in="SourceGraphic" in2="effect1_dropShadow" result="shape"/></filter></defs></svg>