<svg width="16" height="121" fill="none" xmlns="http://www.w3.org/2000/svg"><g filter="url(#filter0_d)"><path d="M8.354 18.36a.5.5 0 00-.708 0l-3.182 3.182a.5.5 0 10.708.707L8 19.421l2.828 2.828a.5.5 0 10.708-.707L8.354 18.36zM8.5 40.654v-21.94h-1v21.94h1z" fill="#FCFDFB"/><path d="M7.646 102.534a.5.5 0 00.708 0l3.182-3.182a.5.5 0 10-.708-.707L8 101.473l-2.828-2.828a.5.5 0 00-.708.707l3.182 3.182zM7.5 80.146v22.034h1V80.146h-1z" fill="#0f3a53"/></g><defs><filter id="filter0_d" x=".318" y="0" width="15.364" height="128.8" filterUnits="userSpaceOnUse" color-interpolation-filters="sRGB"><feFlood flood-opacity="0" result="BackgroundImageFix"/><feColorMatrix in="SourceAlpha" values="0 0 0 0 0 0 0 0 0 0 0 0 0 0 0 0 0 0 127 0"/><feOffset dy="4"/><feGaussianBlur stdDeviation="2"/><feColorMatrix values="0 0 0 0 0 0 0 0 0 0 0 0 0 0 0 0 0 0 0.25 0"/><feBlend in2="BackgroundImageFix" result="effect1_dropShadow"/><feBlend in="SourceGraphic" in2="effect1_dropShadow" result="shape"/></filter></defs></svg>